<svg width="24" height="24" viewBox="0 0 24 24" fill="none" xmlns="http://www.w3.org/2000/svg">
<g id="ci:search">
<path id="Vector" d="M5.32304 19.607L11.038 13.891C12.2642 14.7628 13.7732 15.142 15.2659 14.9537C16.7586 14.7653 18.126 14.023 19.0972 12.8739C20.0683 11.7248 20.5724 10.2528 20.5094 8.74965C20.4464 7.24646 19.821 5.82179 18.757 4.758C17.6934 3.69375 16.2688 3.06797 14.7654 3.0047C13.2621 2.94143 11.7899 3.4453 10.6407 4.41641C9.49137 5.38753 8.7489 6.75501 8.56042 8.2478C8.37194 9.74058 8.7512 11.2497 9.62304 12.476L3.90804 18.192L5.32204 19.606L5.32304 19.607ZM14.515 5C15.435 4.99978 16.3269 5.31667 17.0405 5.89727C17.754 6.47786 18.2457 7.28667 18.4326 8.18743C18.6194 9.08819 18.4901 10.0258 18.0664 10.8424C17.6427 11.6589 16.9505 12.3045 16.1064 12.6702C15.2623 13.036 14.3179 13.0996 13.4323 12.8504C12.5468 12.6012 11.7742 12.0544 11.2448 11.302C10.7154 10.5497 10.4614 9.63791 10.5258 8.72023C10.5901 7.80254 10.9688 6.93508 11.598 6.264L10.993 6.864L11.675 6.184L11.687 6.172C12.0575 5.79929 12.4982 5.50379 12.9836 5.30261C13.469 5.10143 13.9896 4.99858 14.515 5Z" fill="#ECEDEE"/>
</g>
</svg>
