<svg width="49" height="48" viewBox="0 0 49 48" fill="none" xmlns="http://www.w3.org/2000/svg">
<g id="chick-svgrepo-com 1" clip-path="url(#clip0_8681_253)">
<g id="Group">
<path id="Vector" d="M46.2266 16.3588L46.2016 16.2268L46.1478 16.1032C46.0749 15.9333 45.9649 15.642 45.8253 15.2937C45.4431 14.35 44.8339 12.9626 43.705 11.7004C43.7066 11.6359 43.7089 11.5729 43.7089 11.5054C43.7096 8.33222 42.42 5.448 40.3401 3.36956C38.2615 1.28953 35.3768 -0.000749673 32.2035 3.26786e-07C29.0304 -0.000749673 26.1463 1.28953 24.0677 3.36956C21.9884 5.44809 20.6973 8.33222 20.698 11.5054C20.6973 12.5552 20.8217 13.4655 20.9932 14.3083C21.1653 15.1519 21.3777 15.9263 21.5704 16.7623C21.6402 17.0679 21.7274 17.3327 21.8131 17.5619C19.5389 17.3404 17.4748 17.2312 15.6177 17.2312C13.6083 17.2312 11.8401 17.3571 10.2986 17.609C9.14251 17.7979 8.11313 18.0573 7.20432 18.3948C5.8457 18.9016 4.73898 19.5873 3.94848 20.5135C3.55548 20.9755 3.24826 21.4966 3.04576 22.0565C2.84251 22.6163 2.74388 23.211 2.74463 23.8148C2.74538 24.8526 3.02382 25.91 3.51535 26.9879C4.00773 28.0666 4.71685 29.1734 5.63101 30.3257C6.27048 31.1305 6.73557 31.7253 7.13082 32.3101C7.52748 32.8965 7.86657 33.4822 8.27016 34.3219C9.53241 36.9496 11.3022 39.2406 13.5757 40.8859C14.9632 41.8926 16.5425 42.6473 18.2789 43.0812L15.9319 48H23.0353V45.8426H19.3524L20.4941 43.45C20.9152 43.4857 21.3422 43.5062 21.7769 43.5054C24.0928 43.5062 26.2912 42.9919 28.2658 42.077L31.2425 46.7544L37.057 44.7032L36.3394 42.6686L32.1422 44.1494L30.1585 41.0339C31.0809 40.4377 31.9381 39.7489 32.7089 38.9774C35.5059 36.1835 37.2384 32.3102 37.2384 28.0454H37.2377C37.2429 27.937 37.2468 27.8286 37.2468 27.7178C37.2445 26.9463 37.1467 26.0716 37.054 25.1886C36.9615 24.3102 36.8742 23.4302 36.8751 22.7672C36.8736 22.4198 36.9031 22.1406 36.9365 21.9881C38.575 21.247 40.0012 20.1364 41.1192 18.7634C42.2215 18.7285 43.1818 18.6466 43.9579 18.5039C44.1878 18.4607 44.4032 18.413 44.608 18.3546C44.9168 18.2635 45.1974 18.1657 45.5047 17.9654C45.6579 17.8614 45.8232 17.7279 45.9773 17.5118C46.053 17.404 46.1244 17.2736 46.1745 17.1249C46.2261 16.9762 46.2556 16.8093 46.2549 16.6448C46.2548 16.5446 46.2442 16.4483 46.2266 16.3588ZM42.4444 16.1669C41.8769 16.2185 41.2094 16.2511 40.4751 16.2609L39.8454 16.27L39.4752 16.7797C38.5171 18.099 37.2147 19.1481 35.7021 19.789C35.3455 19.9377 35.0626 20.201 34.8851 20.4604C34.7478 20.6576 34.6575 20.8556 34.5893 21.0475C34.4884 21.3365 34.436 21.6164 34.4027 21.9001C34.3708 22.1839 34.3586 22.4721 34.3586 22.7672C34.3601 23.6282 34.458 24.5643 34.5514 25.4511C34.6447 26.3325 34.7312 27.1723 34.7297 27.7178C34.7297 27.8125 34.7274 27.8975 34.7229 27.9688L34.7214 28.0075V28.0454C34.7206 31.6229 33.2739 34.8515 30.9292 37.1978C28.5829 39.5418 25.3551 40.9884 21.7769 40.9884C19.143 40.9854 16.928 40.1994 15.0505 38.8462C13.1784 37.493 11.6521 35.5493 10.5384 33.2319C10.4747 33.0984 10.4109 32.9771 10.3488 32.8519C11.5269 33.2479 12.6018 33.5186 13.5554 33.6962C15.184 34.0004 16.4698 34.0444 17.3256 34.0444C17.6669 34.0444 17.9408 34.0384 18.1221 34.0384C18.6182 34.0384 19.0209 33.6355 19.0209 33.1387C19.0209 32.6418 18.6181 32.2398 18.1221 32.2398C17.9028 32.2398 17.6441 32.2466 17.3256 32.2466C16.5337 32.2466 15.3798 32.2072 13.8846 31.9288C12.4827 31.6671 10.779 31.1891 8.81495 30.3327C8.45691 29.8426 8.06551 29.3458 7.60201 28.7609C6.78348 27.73 6.18573 26.7802 5.80491 25.9444C5.4226 25.1068 5.26032 24.3907 5.26182 23.815C5.26641 23.2149 5.4151 22.7583 5.73441 22.3107C5.97798 21.9777 6.33601 21.647 6.85107 21.3352C7.61879 20.8687 8.7377 20.4597 10.2032 20.1813C11.6689 19.9006 13.4765 19.7474 15.6179 19.7474C17.5395 19.7474 19.728 19.8703 22.185 20.1283L22.3755 20.148L22.5636 20.1108C22.7979 20.0638 23.0096 20.0123 23.2114 19.9462C23.3647 19.8961 23.5141 19.8376 23.6665 19.7572C23.7811 19.6982 23.8979 19.6245 24.0147 19.529C24.1892 19.3886 24.3637 19.1861 24.476 18.9448C24.5913 18.7044 24.6352 18.4449 24.6329 18.2332C24.6299 17.9214 24.5624 17.703 24.5039 17.5224C24.4114 17.2554 24.3166 17.0552 24.2338 16.8466C24.1504 16.6395 24.0769 16.4317 24.0222 16.1964C23.8151 15.2998 23.608 14.5413 23.4601 13.8077C23.3114 13.0734 23.2159 12.3626 23.2151 11.5055C23.2159 9.01884 24.2196 6.78094 25.8474 5.14997C27.4784 3.52134 29.7177 2.51775 32.2036 2.517C34.6895 2.51775 36.9295 3.52134 38.5598 5.14997C40.1885 6.78094 41.1921 9.01875 41.1928 11.5055C41.1928 11.6898 41.183 11.8854 41.1693 12.0964L41.1337 12.6722L41.5464 13.0758C42.2003 13.7138 42.6789 14.4784 43.0362 15.202C43.1804 15.4964 43.301 15.7762 43.4109 16.0433C43.1416 16.0902 42.8169 16.1335 42.4444 16.1669Z" fill="#ECEDEE"/>
<path id="Vector_2" d="M34.421 10.3668C33.6267 10.3668 32.9834 11.0108 32.9834 11.8057C32.9834 12.5992 33.6267 13.244 34.421 13.244C35.2152 13.244 35.8593 12.5992 35.8593 11.8057C35.8593 11.0108 35.2152 10.3668 34.421 10.3668Z" fill="#ECEDEE"/>
</g>
</g>
<defs>
<clipPath id="clip0_8681_253">
<rect width="48" height="48" fill="white" transform="translate(0.5)"/>
</clipPath>
</defs>
</svg>
