<svg width="32" height="32" viewBox="0 0 32 32" fill="none" xmlns="http://www.w3.org/2000/svg">
<g id="Frame">
<g id="SVGRepo_iconCarrier">
<path id="Vector" fill-rule="evenodd" clip-rule="evenodd" d="M19.2703 11.3157L16.2456 5.25195L15.2628 6.32413C9.74593 12.3426 8 15.9479 8 18.9999C8 23.2293 11.646 26.5453 16 26.5453C20.354 26.5453 24 23.2293 24 18.9999C24 17.7572 23.5661 16.4165 22.9841 15.1544C22.3947 13.8759 21.6121 12.5911 20.8267 11.4372L20.142 10.4312L19.2703 11.3157ZM18.7297 14.7131L19.8424 13.5844C20.3413 14.3795 20.8011 15.196 21.168 15.9917C21.702 17.15 22 18.1809 22 18.9999C22 20.1255 21.6311 21.1868 20.9917 22.0739C20.9972 21.9913 21 21.9079 21 21.8233C21 21.0741 20.6975 20.3217 20.3509 19.6832C19.9928 19.0239 19.5245 18.3731 19.066 17.8009L18.418 16.9924L17.9696 17.3787L16.2325 14.4212L15.3204 15.2663C12.1829 18.1731 11 20.0677 11 21.8233C11 21.9079 11.0028 21.9913 11.0083 22.0739C10.3689 21.1868 10 20.1255 10 18.9999C10 16.9048 11.1027 14.0411 15.7608 8.76067L18.7297 14.7131ZM17.4591 20.4587L18.1264 19.8836C18.3012 20.1381 18.4596 20.3915 18.5932 20.6375C18.8843 21.1736 19 21.5721 19 21.8233C19 22.8228 17.8841 23.9999 16 23.9999C14.1159 23.9999 13 22.8228 13 21.8233C13 21.098 13.4263 19.9285 15.7779 17.5963L17.4591 20.4587Z" fill="#ECEDEE"/>
</g>
</g>
</svg>
