<svg width="20" height="20" viewBox="0 0 20 20" fill="none" xmlns="http://www.w3.org/2000/svg">
<g id="Frame" clip-path="url(#clip0_2905_988)">
<g id="SVGRepo_iconCarrier">
<path id="Vector" fill-rule="evenodd" clip-rule="evenodd" d="M10 0C15.5229 0 20 4.47715 20 10C20 15.5229 15.5229 20 10 20C4.47715 20 0 15.5229 0 10C0 4.47715 4.47715 0 10 0ZM10 2.5C5.85786 2.5 2.5 5.85786 2.5 10C2.5 14.1421 5.85786 17.5 10 17.5C14.1421 17.5 17.5 14.1421 17.5 10C17.5 5.85786 14.1421 2.5 10 2.5ZM13.75 11.25C13.75 13.3211 12.0711 15 10 15C8.0029 15 6.37042 13.4389 6.25637 11.4703L6.25 11.25H13.75ZM7.5 6.25C8.19035 6.25 8.75 6.80965 8.75 7.5C8.75 8.19035 8.19035 8.75 7.5 8.75C6.80965 8.75 6.25 8.19035 6.25 7.5C6.25 6.80965 6.80965 6.25 7.5 6.25ZM12.5 6.25C13.1904 6.25 13.75 6.80965 13.75 7.5C13.75 8.19035 13.1904 8.75 12.5 8.75C11.8096 8.75 11.25 8.19035 11.25 7.5C11.25 6.80965 11.8096 6.25 12.5 6.25Z" fill="#ECEDEE"/>
</g>
</g>
<defs>
<clipPath id="clip0_2905_988">
<rect width="20" height="20" fill="white"/>
</clipPath>
</defs>
</svg>
